<mxfile host="app.diagrams.net" modified="2023-05-30T11:35:03.553Z" agent="Mozilla/5.0 (X11; Linux x86_64) AppleWebKit/537.36 (KHTML, like Gecko) Chrome/109.0.0.0 Safari/537.36 OPR/95.0.0.0" version="21.3.5" etag="QZYym8k-qjOgciW8EiOg" type="github">
  <diagram name="Page-1" id="t7tJIYEUTPCclNw82RbO">
    <mxGraphModel>
      <root>
        <mxCell id="0" />
        <mxCell id="1" parent="0" />
      </root>
    </mxGraphModel>
  </diagram>
</mxfile>
